<svg id="Layer_1" data-name="Layer 1" xmlns="http://www.w3.org/2000/svg" width="792" height="612" viewBox="0 0 792 612">
  <defs>
    <style>
      .cls-1 {
        fill: #6399ba;
      }
    </style>
  </defs>
  <g>
    <path class="cls-1" d="M599.4,65.1l-14.5,4.7c-4.8,1.5-9.7,3.1-14.4,4.9A73.4,73.4,0,0,0,557,81.3c-4.2,2.8-8,6.1-10.5,10.3a16.1,16.1,0,0,0-2.5,6.6,10.3,10.3,0,0,0,0,3.5,13.9,13.9,0,0,0,1,3.3c.2.5.6,1,.8,1.5a17.1,17.1,0,0,0,1.1,1.4,14.2,14.2,0,0,0,2.5,2.4,16,16,0,0,0,6.5,2.5,60.1,60.1,0,0,0,7.4.4,43.2,43.2,0,0,1,7.9.8,16.3,16.3,0,0,1,4,1.5,9.5,9.5,0,0,1,3.1,3.2c1.6,2.5,2,5.1,3.3,6.8a6.7,6.7,0,0,0,2.3,2.1,13.4,13.4,0,0,0,3.2,1.4c2.3.9,4.9,1.6,7.4,3.3a7.2,7.2,0,0,1,2.7,4,11.4,11.4,0,0,1,0,4.5c-.3,1.3-.7,2.5-1,3.8s-.7,2.5-1.1,3.7a119.3,119.3,0,0,1-5.3,14.5,35.4,35.4,0,0,0-1.4,3.3c-.1.5-.2.8-.1,1a1.6,1.6,0,0,0,.3.8,7.8,7.8,0,0,0,2.4,1.7,23.7,23.7,0,0,0,3.2,1.3c4.5,1.4,9.5,1.8,14.6,2.4a55.8,55.8,0,0,1,15.4,3.7,48.9,48.9,0,0,1,7.2,3.7,44.9,44.9,0,0,1,6.5,5,31.2,31.2,0,0,1,8.9,14l-5.7,1.7a24.6,24.6,0,0,0-2.8-6.2,27.5,27.5,0,0,0-4.4-5.3,38.2,38.2,0,0,0-11.8-7.9l-3.3-1.3c-1.2-.3-2.3-.8-3.5-1a54,54,0,0,0-7.2-1.5c-5-.8-10.2-1.3-15.4-3.1a31.7,31.7,0,0,1-3.8-1.7,12.2,12.2,0,0,1-3.6-3,6.3,6.3,0,0,1-1.1-2.8,7.7,7.7,0,0,1,.3-2.7,19.5,19.5,0,0,1,.9-2l.8-1.7a118.7,118.7,0,0,0,5.6-13.9c.4-1.2.8-2.4,1.1-3.6s.7-2.5,1-3.6a6.3,6.3,0,0,0,.2-3,3.8,3.8,0,0,0-1.6-2.2c-1.6-1.3-4.1-2-6.5-2.9a21,21,0,0,1-3.7-1.8,9.4,9.4,0,0,1-3.3-3c-1.6-2.5-2-5.1-3.2-7a6.6,6.6,0,0,0-2.2-2.2,14.3,14.3,0,0,0-3.1-1.2,34.1,34.1,0,0,0-7.3-.7,71.9,71.9,0,0,1-7.8-.6,17.6,17.6,0,0,1-7.5-3.1,11.5,11.5,0,0,1-3-2.8,13.6,13.6,0,0,1-1.2-1.7,17.4,17.4,0,0,1-1-1.9,18.2,18.2,0,0,1-1.1-4,14.1,14.1,0,0,1,0-4.1,20.7,20.7,0,0,1,3-7.5A35,35,0,0,1,556,79.8a74.5,74.5,0,0,1,14-6.6c4.8-1.7,9.7-3.2,14.6-4.6l14.6-4.3Z"/>
    <path class="cls-1" d="M792,95a48.8,48.8,0,0,0-7.6.7l-3.8.8-1.9.4-1.7.6a2.9,2.9,0,0,0-1.7,2.4,5,5,0,0,0,1,3.2,7.3,7.3,0,0,0,2.6,2.3,17.7,17.7,0,0,0,3.4,1.6l3.6,1.6a14,14,0,0,1,3.4,2.6,7.6,7.6,0,0,1,1.2,1.9,8.3,8.3,0,0,1,.6,2.1,10.4,10.4,0,0,1-.4,4.3,19.4,19.4,0,0,1-4.1,7.1,28.4,28.4,0,0,1-6.1,5.3,30.2,30.2,0,0,1-3.6,1.8l-3.4,1.8a71.6,71.6,0,0,0-6.6,3.9,19.8,19.8,0,0,0-5.2,5.2,6.9,6.9,0,0,0-1.2,3.1,6.2,6.2,0,0,0,.5,3.2c.8,2.1,2.7,4,3.9,6.6a8.9,8.9,0,0,1,.9,4.5,8.4,8.4,0,0,1-1.8,4.2,18.7,18.7,0,0,1-6.7,5,42.5,42.5,0,0,1-7.4,3c-2.5.9-5.1,1.6-7.6,2.3s-4.9,1.4-7.4,2.3c-4.8,1.7-9.6,3.7-14.3,5.8l-14.5,6.2a131.4,131.4,0,0,1-15,4.9,205.2,205.2,0,0,1-31,5.4c-10.5,1.1-20.9,1.8-31.3,2.5s-20.7,1.5-30.9,3a235.8,235.8,0,0,0-30.3,6.2,230.3,230.3,0,0,0-29.3,10.1l-7,3.2a25.3,25.3,0,0,0-3.3,1.6,11.8,11.8,0,0,0-2.4,1.9,3.5,3.5,0,0,0-.5.8v.5a3.9,3.9,0,0,0,1,1.7,31.8,31.8,0,0,0,2.6,2.5,30,30,0,0,1,3,3.1,9.4,9.4,0,0,1,1.5,2.2,8,8,0,0,1,.9,3.2,8.1,8.1,0,0,1-.7,3.5,9.5,9.5,0,0,1-2,2.7,14.8,14.8,0,0,1-4.8,2.5,23.6,23.6,0,0,1-4.5.8,41.1,41.1,0,0,1-8.6-.1l-7.8-1.2c-10.4-1.7-20.7-3.7-30.9-5.6s-20.4-3.6-30.6-4.5a127.9,127.9,0,0,0-30.3.6,90.4,90.4,0,0,0-14.5,3.6,22.2,22.2,0,0,0-3.1,1.3,9.1,9.1,0,0,0-2.3,1.6c-.5.5-.6.8-.6,1.1a3.9,3.9,0,0,0,.7,1.7,14.3,14.3,0,0,0,2,2.7l2.5,2.8c1.7,1.9,3.4,3.8,5.2,5.5a47.2,47.2,0,0,0,11.7,8.5c2.1,1.1,4.6,1.8,7.3,3.4A14.3,14.3,0,0,1,425,276a10.4,10.4,0,0,1,2,2.5,7.6,7.6,0,0,1-.1,7,13.8,13.8,0,0,1-3.4,4l-1.8,1.3a9.4,9.4,0,0,1-1.8,1.2,33.4,33.4,0,0,1-7.6,3.7,54.8,54.8,0,0,1-16.3,3.2,88.6,88.6,0,0,1-16.3-.7,149.4,149.4,0,0,1-31-7.6c-9.9-3.5-19.6-7.1-29.4-9.7s-19.8-4.1-29.5-3.2a59.7,59.7,0,0,0-7.2,1.1l-3.5,1-3.9,1.1a30,30,0,0,1-4.5.8,26.4,26.4,0,0,1-4.9-.1,73.8,73.8,0,0,1-8.1-2,32.8,32.8,0,0,0-13.6-.6,34.2,34.2,0,0,0-12.7,4.8,19.6,19.6,0,0,0-4.8,4.2,17.7,17.7,0,0,0-1.7,2.4l-.6,1.3-.6,1.6a35.4,35.4,0,0,1-1.5,4.1,19.6,19.6,0,0,1-3.1,4.6,22.2,22.2,0,0,1-8.7,5.2,35.1,35.1,0,0,1-8.8,1.7,49.4,49.4,0,0,1-8.6,0c-5.5-.4-10.7-1.2-15.4-1.3a39.2,39.2,0,0,0-6.9.2,28.9,28.9,0,0,0-6.6,1.6,56.7,56.7,0,0,0-12.8,6.4c-4.2,2.7-8.5,5.8-13.1,8.6a65.9,65.9,0,0,1-15.4,7.2,90.7,90.7,0,0,1-16.4,3.1c-5.4.6-10.6.9-15.6,1.4l-7.4,1a38,38,0,0,1-4,.6l-4.2.5a127.2,127.2,0,0,1-16.3.4,104.3,104.3,0,0,1-16.5-1.9,53.8,53.8,0,0,1-8.3-2.2,30.5,30.5,0,0,1-8.6-4.4l.4.3a22.4,22.4,0,0,0-5.4-2.6,28.3,28.3,0,0,0-5.8-1.1,51.5,51.5,0,0,0-6.7.2c-2.4.2-5,.5-8,.6v-15c1.8,0,4.1-.3,6.8-.5a60.9,60.9,0,0,1,8.7-.2,33.2,33.2,0,0,1,9.7,1.8,37.6,37.6,0,0,1,8.8,4.2h.2l.5.4a7.2,7.2,0,0,0,1.8,1,15.6,15.6,0,0,0,2.6,1.1,52.3,52.3,0,0,0,6.3,1.7,92.2,92.2,0,0,0,14.1,1.6,137.8,137.8,0,0,0,14.4-.3l3.5-.4,3.6-.5c2.9-.5,5.6-.8,8.3-1.1l15.6-1.3a71.2,71.2,0,0,0,13.7-2.3,54.7,54.7,0,0,0,12.2-5.5c4.2-2.4,8.4-5.4,13.1-8.3a71.1,71.1,0,0,1,15.9-7.7,53.6,53.6,0,0,1,9.2-2,56.8,56.8,0,0,1,9.2-.1c5.8.4,11,1.3,15.8,1.8l3.3.2h3.3a32.9,32.9,0,0,0,5.9-1,9.7,9.7,0,0,0,3.7-1.8,4.2,4.2,0,0,0,1-1.2l1.2-2.9a12.8,12.8,0,0,1,.9-2.2,17.9,17.9,0,0,1,1.2-2.4,22.4,22.4,0,0,1,3.1-4.3,31.8,31.8,0,0,1,7.5-6.3,44.1,44.1,0,0,1,26.3-6.2l4.6.5,4.4,1.1a69.5,69.5,0,0,0,6.9,1.9,7.6,7.6,0,0,0,2.6.2,18.1,18.1,0,0,0,2.9-.4l3.6-.9,4.1-1a49.5,49.5,0,0,1,8.5-1.1c11.3-.7,22.3,1.2,32.6,4.1s20.2,6.8,30,10.3a142.1,142.1,0,0,0,29.2,7.4,80.8,80.8,0,0,0,14.7.6,45.7,45.7,0,0,0,13.9-2.6,39.2,39.2,0,0,0,6.2-2.9l1.4-1,1.2-.9a5.7,5.7,0,0,0,1.4-1.5c.1-.1,0-.1,0,.1a2,2,0,0,0,.1.5,3,3,0,0,0-1-.7c-1.5-.9-4.1-1.8-6.8-3.1a55.6,55.6,0,0,1-13.7-10,77,77,0,0,1-5.6-5.9l-2.7-3a31.3,31.3,0,0,1-2.8-3.8,8.9,8.9,0,0,1-1.2-2.6,9.5,9.5,0,0,1-.6-3.5,10.1,10.1,0,0,1,.9-3.8,9.3,9.3,0,0,1,1.9-2.7,19.5,19.5,0,0,1,4.4-3.2,28.5,28.5,0,0,1,4.2-1.7,81.2,81.2,0,0,1,16-3.9,128.7,128.7,0,0,1,32.2-.6c10.7.9,21.1,2.7,31.4,4.6s20.4,4,30.6,5.6l7.6,1.2a32.1,32.1,0,0,0,6.9.2,13.3,13.3,0,0,0,3-.6,5.9,5.9,0,0,0,1.9-.8l.2-.2h-.1s.1,0,0-.2a3.3,3.3,0,0,0-.6-.8,16.7,16.7,0,0,0-2.3-2.4c-.9-1-2-1.9-3.1-3.2l-1.5-2.4a9.5,9.5,0,0,1-1-3.5,8.6,8.6,0,0,1,.6-3.9,9.8,9.8,0,0,1,1.9-2.8,16.2,16.2,0,0,1,4.2-3.1,26.9,26.9,0,0,1,3.8-1.9l7.3-3.1a236.7,236.7,0,0,1,30.2-9.9,255.9,255.9,0,0,1,31.2-5.9c10.5-1.3,21-2,31.4-2.5s20.8-1.1,31.1-2a192.5,192.5,0,0,0,30.4-4.8,107.5,107.5,0,0,0,14.6-4.6c4.8-1.8,9.6-3.8,14.4-5.8s9.7-4,14.8-5.7c2.5-.9,5.1-1.6,7.6-2.3s5-1.3,7.4-2.1a47.1,47.1,0,0,0,7.1-2.7,14.6,14.6,0,0,0,5.6-4,4.8,4.8,0,0,0,1.2-2.6,7.5,7.5,0,0,0,0-1.5,12.1,12.1,0,0,0-.5-1.4c-.9-2.1-2.7-4-3.9-6.8a9.4,9.4,0,0,1-.6-4.7,9.8,9.8,0,0,1,1.7-4.2,22,22,0,0,1,6-5.8,68.5,68.5,0,0,1,6.9-4l3.6-1.8a17.1,17.1,0,0,0,3.3-1.7,19.9,19.9,0,0,0,5.7-4.7,16,16,0,0,0,3.8-6.2c.7-2.3.6-4.7-.9-6.4s-3.8-2.7-6.2-3.8a18.1,18.1,0,0,1-3.7-1.8,9.5,9.5,0,0,1-3.1-2.9,6.8,6.8,0,0,1-1.1-4.2,4,4,0,0,1,.8-2.3,4.9,4.9,0,0,1,1.8-1.4,8,8,0,0,1,2-.7l1.9-.5,3.9-.7a51.6,51.6,0,0,1,7.9-.8Z"/>
    <path class="cls-1" d="M85.7,124.3a16.1,16.1,0,0,0,7.1,5.2,38.3,38.3,0,0,0,8.7,2.2c3,.5,6,.8,9.1,1.1a23.4,23.4,0,0,1,4.5.7,13.8,13.8,0,0,1,4.3,1.9,12.3,12.3,0,0,1,3.1,3.7,32,32,0,0,1,1.7,4.3,13.9,13.9,0,0,1,.9,4.6,6.6,6.6,0,0,1-1.7,4.6,14.8,14.8,0,0,1-3.7,2.9l-4,2.2a24.3,24.3,0,0,0-6.3,6.1c-1.9,2.3-3.5,4.9-5.3,7.4l-1.4,1.8-1.3,1.8a12.7,12.7,0,0,0-1.3,1.9l-1,1.9A28.7,28.7,0,0,0,96,195.8a40.8,40.8,0,0,0,2.2,8.5,34.5,34.5,0,0,0,3.8,8,53.5,53.5,0,0,0,11.7,13.4c1.1,1,2.3,1.9,3.5,2.8a14.7,14.7,0,0,1,3.4,3.6,8.6,8.6,0,0,1,.9,5.2,20.7,20.7,0,0,1-1.5,4.6c-.6,1.5-1.3,2.8-1.9,4.2s-1,2.7-1.4,4.1a36.7,36.7,0,0,0-.9,4.3,17,17,0,0,0-.1,2.2,4.1,4.1,0,0,0-.1,1.1c.1.3.1.6.2.9a4.1,4.1,0,0,0,2,2.8,10.9,10.9,0,0,0,3.8,1.1h2.2l2.3-.2,4.6-.2a113.9,113.9,0,0,1,18.4.8,75.2,75.2,0,0,1,18,4.4,91,91,0,0,1,8.5,3.7,44.5,44.5,0,0,0,8.2,3c5.7,1.5,11.7,2.1,17.7,2.9,3.1.5,6.1.9,9.2,1.7a16,16,0,0,1,4.8,1.9,6.6,6.6,0,0,1,2.2,2.2,5.3,5.3,0,0,1,1,3.2h-5a.6.6,0,0,0-.2-.5l-.7-.7a12.1,12.1,0,0,0-3.4-1.3c-2.6-.7-5.6-1.2-8.5-1.7a171.8,171.8,0,0,1-18.3-3.3,48.8,48.8,0,0,1-8.9-3.6,85,85,0,0,0-8.1-3.8,70.4,70.4,0,0,0-17-4.8,65.5,65.5,0,0,0-8.9-1c-3-.2-6-.2-9-.2l-4.5.2h-4.7a11.6,11.6,0,0,1-5.1-1.5,7.4,7.4,0,0,1-3.3-4.6,7.7,7.7,0,0,1-.2-1.5v-1.2a19.4,19.4,0,0,1,.2-2.4,42.6,42.6,0,0,1,2.5-9.2c.6-1.5,1.3-2.8,1.9-4.2a14.9,14.9,0,0,0,1.3-3.9,5.5,5.5,0,0,0-.5-3.4c-1.2-2-4.1-3.7-6.4-5.7a63.2,63.2,0,0,1-12.2-14.1A42.5,42.5,0,0,1,93.6,196a33,33,0,0,1,.4-9.4,31.2,31.2,0,0,1,3.2-9,21.2,21.2,0,0,1,1.2-2l1.3-2,2.8-3.6c1.8-2.4,3.5-4.9,5.4-7.3a26.7,26.7,0,0,1,7-6.4c2.7-1.6,5.6-2.6,7.4-4.7a5.4,5.4,0,0,0,1.4-3.6,10.4,10.4,0,0,0-.8-4.2c-.8-2.9-1.9-5.7-4.2-7.4s-5.3-2.3-8.2-2.6-6.1-.7-9.1-1.2a44.3,44.3,0,0,1-8.8-2.5,15.5,15.5,0,0,1-7.3-5.5Z"/>
    <path class="cls-1" d="M517.9,289a1.6,1.6,0,0,1-.2,1.2l-.7.7a3.3,3.3,0,0,1-1.9.6,8.6,8.6,0,0,1-3.6-.7,41.2,41.2,0,0,0-6.9-1.8,53.5,53.5,0,0,0-7-.8,32.9,32.9,0,0,0-7,.3,8.8,8.8,0,0,0-3,1,2.4,2.4,0,0,0-1,1,2.2,2.2,0,0,0-.5,1.3,11.5,11.5,0,0,1-.5,2,7,7,0,0,1-1.3,1.7,13.1,13.1,0,0,1-3.3,2.1,47.4,47.4,0,0,1-14.3,3.4,117,117,0,0,1-14.5.3,16.6,16.6,0,0,1-7.5-2.1c-2.2-1.2-4.1-2.8-6.1-3.9a17.7,17.7,0,0,0-6-2.6l-1.6-.3h-1.7a19.3,19.3,0,0,0-3.4,0,53.8,53.8,0,0,0-6.9.7l-3.4.8c-1.2.4-2.4.2-3.4,1.9l-.8-7a99.7,99.7,0,0,1,14.6-.8,24.3,24.3,0,0,1,3.8.3l1.8.3,2,.4a22.4,22.4,0,0,1,6.9,3.5c2.1,1.5,3.9,3,5.8,4.1a13.4,13.4,0,0,0,6,2,112.3,112.3,0,0,0,14.2.1,44.1,44.1,0,0,0,13.6-3,10,10,0,0,0,2.8-1.7l.8-1a13.1,13.1,0,0,0,.5-1.5,4.2,4.2,0,0,1,.8-2,4.6,4.6,0,0,1,1.6-1.5,12.7,12.7,0,0,1,3.8-1.1,23,23,0,0,1,3.7-.2h3.6a59.7,59.7,0,0,1,7.2,1.1,55.4,55.4,0,0,1,6.9,2.2,10,10,0,0,0,3.3.8,3.8,3.8,0,0,0,1.5-.5,1,1,0,0,0,.7-1.1Z"/>
    <path class="cls-1" d="M421.9,114.6a48.6,48.6,0,0,1,20.7,5.4,43.4,43.4,0,0,1,4.6,2.8l2.1,1.7a18,18,0,0,1,2,1.9,25.7,25.7,0,0,0,4,3.4,17,17,0,0,0,4.9,1.8,357.5,357.5,0,0,0,42.4,7.2c7.1.8,14.3,1.1,21.2-.1s13.5-4.3,20.6-6.2a96.6,96.6,0,0,1,21.4-2.8c7.2-.2,14.4.1,21.6.4V132c-7.1-.3-14.3-.7-21.4-.5a87.7,87.7,0,0,0-21.1,2.6c-6.9,1.7-13.5,4.7-20.7,5.9s-14.5.8-21.7,0a378.8,378.8,0,0,1-42.3-7.7,14.9,14.9,0,0,1-5.1-1.9,20.4,20.4,0,0,1-4.1-3.6l-2-1.8-2-1.7c-1.5-1.1-3-2-4.5-2.9a48.9,48.9,0,0,0-20.5-5.5Z"/>
  </g>
</svg>
